<?xml version="1.0" standalone="no"?>
<!DOCTYPE svg PUBLIC "-//W3C//DTD SVG 20010904//EN"
 "http://www.w3.org/TR/2001/REC-SVG-20010904/DTD/svg10.dtd">
<svg version="1.0" xmlns="http://www.w3.org/2000/svg"
 width="420.000000pt" height="420.000000pt" viewBox="0 0 420.000000 420.000000"
 preserveAspectRatio="xMidYMid meet">

<g transform="translate(0.000000,420.000000) scale(0.100000,-0.100000)"
fill="current" stroke="none">
<path d="M1815 4180 c-4 -6 -16 -8 -26 -5 -25 8 -116 -35 -160 -76 -27 -25
-31 -34 -25 -62 12 -59 70 -84 117 -49 46 33 69 42 109 42 92 0 162 -62 233
-204 70 -139 155 -209 290 -237 62 -13 94 -9 221 32 73 23 195 25 236 4 42
-22 65 -89 50 -146 -31 -112 -142 -268 -332 -463 l-103 -106 -392 0 -392 0
-20 29 c-26 36 -67 63 -101 66 -15 1 -32 5 -39 9 -7 4 -20 5 -29 1 -9 -4 -27
-9 -40 -11 -28 -3 -88 -47 -102 -74 -7 -13 -21 -20 -39 -20 -23 0 -49 23 -150
134 -219 238 -299 363 -305 476 -2 56 -1 62 30 93 33 32 36 33 108 31 42 -1
104 -11 138 -22 136 -43 162 -46 225 -32 32 7 81 24 109 38 86 41 184 158 184
220 0 29 -42 72 -71 72 -24 0 -79 -46 -79 -65 0 -20 -69 -84 -107 -100 -49
-21 -127 -18 -198 6 -123 41 -276 45 -347 8 -33 -17 -97 -80 -114 -112 -44
-83 -36 -203 21 -322 50 -106 242 -355 268 -347 4 1 11 -8 16 -20 5 -13 23
-36 40 -52 37 -35 38 -46 10 -72 -50 -45 -64 -147 -29 -210 16 -28 18 -39 9
-50 -6 -8 -16 -14 -21 -14 -15 0 -191 -123 -283 -198 -236 -192 -431 -431
-547 -672 -93 -192 -170 -483 -152 -575 3 -19 1 -35 -5 -39 -12 -8 -15 -128
-4 -140 4 -3 8 -35 9 -69 2 -58 33 -207 53 -252 4 -11 14 -33 21 -50 64 -152
141 -248 290 -356 69 -51 235 -130 280 -134 9 0 20 -4 25 -7 22 -13 187 -50
285 -64 25 -4 385 -8 800 -11 795 -5 813 -4 1053 42 129 24 129 24 167 5 85
-43 120 -50 277 -50 90 0 163 5 180 11 116 47 183 96 183 134 0 26 -49 75 -76
75 -10 0 -33 -8 -50 -19 -139 -85 -347 -82 -488 6 -64 41 -121 106 -157 178
-31 63 -34 79 -37 172 -6 161 32 258 137 355 119 110 270 151 416 113 72 -18
136 -51 186 -93 40 -34 119 -142 119 -162 0 -5 4 -18 9 -28 43 -80 37 -239
-14 -346 -36 -75 -13 -136 50 -136 38 0 63 25 94 94 57 125 64 287 18 424
l-25 72 66 32 c93 45 217 169 259 258 52 111 53 115 53 273 0 193 -18 251
-114 380 -103 138 -243 214 -430 233 -71 7 -206 -17 -275 -49 -41 -19 -44 -19
-53 -3 -44 79 -261 302 -403 415 -90 72 -249 181 -264 181 -20 0 -21 20 -1 55
13 24 20 54 20 91 0 62 -9 85 -52 130 l-30 32 103 108 c161 172 257 307 294
418 24 70 22 180 -4 233 -24 48 -80 106 -124 128 -82 41 -233 39 -349 -5 -141
-54 -258 -7 -321 129 -30 66 -89 150 -139 198 -49 48 -148 97 -177 88 -11 -3
-22 -1 -26 5 -3 5 -12 10 -20 10 -8 0 -17 -5 -20 -10z m-311 -1336 c3 -9 6
-99 6 -200 l0 -184 -40 0 -40 0 0 193 c0 107 3 197 7 200 13 13 61 7 67 -9z
m-226 -126 l3 -38 -60 0 c-50 0 -61 3 -66 20 -3 10 -1 29 5 40 10 18 19 21 63
18 l52 -3 3 -37z m1246 20 c11 -15 12 -26 5 -40 -9 -17 -32 -18 -439 -18
l-430 0 0 40 0 40 424 0 c424 0 425 0 440 -22z m-1244 -275 c0 -54 -2 -58 -51
-110 -69 -73 -99 -144 -99 -236 0 -69 11 -116 38 -165 12 -21 10 -27 -12 -57
-39 -50 -53 -116 -37 -162 8 -21 22 -50 32 -64 18 -26 18 -28 0 -65 -39 -80
-41 -102 -41 -513 0 -391 1 -404 21 -432 l20 -29 313 0 c386 0 353 -17 358
185 4 182 2 603 -4 680 -3 33 -14 80 -26 104 l-21 44 22 31 c16 23 22 47 24
95 2 66 -5 90 -39 128 -20 21 -20 22 6 86 28 72 35 173 15 224 -31 77 -56 117
-96 154 -41 38 -43 42 -43 99 l0 60 395 0 396 0 67 -37 c233 -128 439 -294
603 -486 101 -119 100 -116 45 -179 -54 -61 -110 -167 -131 -251 -8 -32 -15
-101 -15 -154 0 -92 4 -117 36 -206 8 -20 14 -41 14 -46 0 -4 -30 -23 -67 -41
-132 -64 -291 -259 -308 -375 -2 -17 -9 -46 -14 -65 -20 -64 -4 -245 25 -292
5 -7 9 -19 10 -26 4 -25 35 -81 69 -127 19 -25 32 -45 27 -45 -4 0 -36 -5 -72
-11 -123 -20 -245 -29 -545 -37 -315 -9 -974 1 -1135 17 -320 31 -572 134
-713 291 -51 57 -123 194 -141 270 -58 239 -46 499 33 738 113 342 407 702
766 936 99 65 218 125 248 126 26 0 27 -1 27 -57z m284 -182 c16 -9 43 -34 60
-54 28 -35 30 -45 30 -111 0 -65 -3 -78 -27 -110 l-28 -36 -129 0 c-142 0
-150 3 -176 67 -39 91 0 200 88 248 35 19 147 17 182 -4z m2195 -430 c189 -59
301 -219 301 -431 0 -140 -41 -242 -132 -329 -41 -40 -152 -101 -183 -101 -9
0 -42 22 -73 49 -106 91 -197 129 -346 145 l-99 11 -19 37 c-11 21 -26 68 -34
105 -13 56 -13 80 -3 138 15 86 57 184 105 242 45 55 136 117 200 136 71 22
209 21 283 -2z m-2101 -43 c21 -21 14 -57 -10 -63 -13 -3 -102 -4 -198 -3
-175 3 -175 3 -178 26 -8 52 -6 52 191 52 129 0 187 -4 195 -12z m-11 -257
c23 -34 23 -35 23 -407 l0 -374 -100 0 -100 0 0 268 0 268 -30 22 c-38 29 -65
28 -95 -3 l-25 -24 0 -266 0 -265 -25 0 -25 0 0 369 c0 368 4 411 36 444 4 4
78 6 163 5 l155 -3 23 -34z"/>
<path d="M3453 1596 l-28 -24 0 -150 c0 -201 -10 -191 189 -191 204 0 196 -8
196 190 l0 147 -31 26 c-30 25 -35 26 -164 26 -127 0 -135 -1 -162 -24z m207
-171 l0 -45 -45 0 -45 0 0 45 0 45 45 0 45 0 0 -45z"/>
<path d="M3461 3994 c-34 -43 -27 -71 32 -131 57 -56 85 -65 124 -38 34 24 38
62 9 105 -33 50 -86 90 -119 90 -16 0 -33 -10 -46 -26z"/>
<path d="M3742 3967 c-40 -41 -52 -60 -52 -84 0 -36 38 -73 75 -73 39 0 135
98 135 139 0 5 -12 23 -26 40 -39 47 -69 42 -132 -22z"/>
<path d="M3491 3715 c-58 -61 -64 -92 -26 -130 31 -32 60 -32 102 1 100 76
104 172 8 180 -29 2 -40 -5 -84 -51z"/>
<path d="M3711 3746 c-36 -39 -27 -75 32 -134 63 -62 92 -67 131 -21 32 37 32
53 4 82 -13 12 -22 25 -21 29 2 4 -13 20 -32 35 -43 35 -87 38 -114 9z"/>
<path d="M3139 3217 c-15 -12 -69 -80 -120 -152 -69 -96 -93 -138 -93 -161 0
-31 28 -76 151 -241 64 -86 75 -93 139 -84 12 1 68 75 167 217 36 52 57 92 57
109 0 17 -15 49 -38 79 -21 28 -62 85 -92 126 -96 137 -120 151 -171 107z m90
-244 c23 -32 41 -63 41 -69 0 -5 -20 -38 -44 -72 l-44 -63 -47 66 -47 66 27
42 c25 38 65 87 71 87 1 0 21 -26 43 -57z"/>
<path d="M373 3126 c-26 -23 -28 -29 -28 -101 0 -69 2 -78 25 -95 32 -25 61
-25 94 1 24 19 26 26 26 99 0 73 -2 80 -26 99 -35 27 -57 26 -91 -3z"/>
<path d="M158 2910 c-36 -28 -38 -77 -5 -108 19 -18 35 -22 93 -22 61 0 74 3
92 23 27 28 28 64 3 97 -17 21 -29 25 -88 28 -58 3 -72 1 -95 -18z"/>
<path d="M530 2923 c-34 -13 -50 -37 -50 -73 0 -53 29 -70 118 -70 59 0 72 3
90 23 28 30 29 78 1 103 -21 18 -127 30 -159 17z"/>
<path d="M364 2769 c-15 -17 -19 -36 -19 -96 1 -67 3 -77 25 -94 30 -23 87
-22 82 1 -2 8 0 12 4 8 4 -4 13 -3 21 3 9 8 13 36 13 89 0 62 -4 80 -18 93
-27 24 -85 22 -108 -4z"/>
<path d="M3871 2734 c-17 -21 -21 -41 -21 -94 0 -64 2 -70 31 -94 39 -33 54
-33 90 3 26 27 29 36 29 96 0 57 -3 69 -25 90 -33 34 -77 33 -104 -1z"/>
<path d="M3683 2535 c-58 -25 -69 -76 -25 -118 24 -23 37 -27 89 -27 93 0 141
47 109 108 -25 49 -107 66 -173 37z"/>
<path d="M4033 2535 c-58 -25 -68 -71 -24 -116 26 -26 36 -29 94 -29 79 0 97
15 97 84 0 44 -2 48 -35 62 -43 17 -90 17 -132 -1z"/>
<path d="M3892 2413 c-33 -13 -57 -142 -36 -198 9 -22 61 -47 84 -40 43 14 60
53 59 132 -1 66 -4 76 -27 93 -24 19 -53 24 -80 13z"/>
<path d="M3142 726 c-96 -94 -106 -107 -106 -140 0 -32 9 -46 69 -106 37 -38
73 -68 79 -67 5 1 10 -2 11 -8 1 -19 16 -35 47 -51 44 -23 69 -9 176 99 132
133 132 130 -4 267 -88 90 -113 110 -137 110 -23 0 -50 -21 -135 -104z m171
-168 c-32 -34 -40 -34 -70 -6 -29 27 -29 36 4 70 l27 28 33 -32 33 -32 -27
-28z"/>
</g>
</svg>
